<svg width="50" height="50" viewBox="0 0 50 50" fill="none" xmlns="http://www.w3.org/2000/svg">
<circle cx="25" cy="25" r="25" fill="#DFEBE0"/>
<path d="M18.25 14.875V13M30.75 14.875V13" stroke="#609966" stroke-width="1.5" stroke-linecap="round"/>
<path d="M20.75 28L22.625 26.125V31.125" stroke="#609966" stroke-width="1.5" stroke-linecap="round" stroke-linejoin="round"/>
<path d="M36.375 21.125H22.9375M12 21.125H16.8438M25.75 29.875V27.375C25.75 27.0435 25.8817 26.7255 26.1161 26.4911C26.3505 26.2567 26.6685 26.125 27 26.125C27.3315 26.125 27.6495 26.2567 27.8839 26.4911C28.1183 26.7255 28.25 27.0435 28.25 27.375V29.875C28.25 30.2065 28.1183 30.5245 27.8839 30.7589C27.6495 30.9933 27.3315 31.125 27 31.125C26.6685 31.125 26.3505 30.9933 26.1161 30.7589C25.8817 30.5245 25.75 30.2065 25.75 29.875Z" stroke="#609966" stroke-width="1.5" stroke-linecap="round"/>
<path d="M27 37.375H22C17.2863 37.375 14.9287 37.375 13.465 35.91C12 34.4462 12 32.0887 12 27.375V24.875C12 20.1613 12 17.8037 13.465 16.34C14.9287 14.875 17.2863 14.875 22 14.875H27C31.7137 14.875 34.0712 14.875 35.535 16.34C37 17.8037 37 20.1613 37 24.875V27.375C37 32.0887 37 34.4462 35.535 35.91C34.7187 36.7275 33.625 37.0888 32 37.2475" stroke="#609966" stroke-width="1.5" stroke-linecap="round"/>
</svg>
