<svg width="24" height="22" viewBox="0 0 24 22" fill="none" xmlns="http://www.w3.org/2000/svg">
<path d="M15.7355 22.2517H15.5838C10.4038 22.2517 7.90718 20.3559 7.47551 16.1092C7.42885 15.665 7.77885 15.2642 8.26885 15.2209C8.73551 15.1775 9.17885 15.5134 9.22551 15.9575C9.56385 19.3592 11.2905 20.6267 15.5955 20.6267H15.7472C20.4955 20.6267 22.1755 19.0667 22.1755 14.6575V7.59417C22.1755 3.185 20.4955 1.625 15.7472 1.625H15.5955C11.2672 1.625 9.54051 2.91417 9.22551 6.38083C9.16718 6.825 8.75885 7.16083 8.26885 7.1175C7.77885 7.085 7.42884 6.68417 7.46384 6.24C7.8605 1.92833 10.3688 0 15.5838 0H15.7355C21.4638 0 23.9138 2.275 23.9138 7.59417V14.6575C23.9138 19.9767 21.4638 22.2517 15.7355 22.2517Z" fill="#FF0004"/>
<path d="M15.4556 11.9378H2.17896C1.70062 11.9378 1.30396 11.5695 1.30396 11.1253C1.30396 10.6811 1.70062 10.3128 2.17896 10.3128H15.4556C15.9339 10.3128 16.3306 10.6811 16.3306 11.1253C16.3306 11.5695 15.9339 11.9378 15.4556 11.9378Z" fill="#FF0004"/>
<path d="M4.78042 15.5667C4.55875 15.5667 4.33708 15.4909 4.16208 15.3284L0.25375 11.6992C-0.0845833 11.3851 -0.0845833 10.8651 0.25375 10.5509L4.16208 6.92178C4.50042 6.60762 5.06042 6.60762 5.39875 6.92178C5.73708 7.23595 5.73708 7.75595 5.39875 8.07012L2.10875 11.1251L5.39875 14.1801C5.73708 14.4942 5.73708 15.0142 5.39875 15.3284C5.23542 15.4909 5.00208 15.5667 4.78042 15.5667Z" fill="#FF0004"/>
</svg>
