<svg width="50" height="50" viewBox="0 0 50 50" fill="none" xmlns="http://www.w3.org/2000/svg">
<circle cx="25" cy="25" r="25" fill="#F1F8E0"/>
<path opacity="0.5" d="M33.0857 21.2364L33.0639 22.1162C33.0377 23.1722 33.3119 24.2119 33.855 25.1044L35.1861 27.292C36.4007 29.2903 35.3696 31.9394 33.156 32.5059C27.3718 33.9903 21.289 33.8392 15.5857 32.0695C13.4029 31.3939 12.5046 28.6969 13.8169 26.7613L15.255 24.6425C15.8438 23.771 16.1699 22.7487 16.1946 21.6973L16.2165 20.8175C16.3365 15.9863 20.2102 12.1636 24.8677 12.2793C29.5252 12.395 33.2057 16.4052 33.0857 21.2364Z" fill="#40513B"/>
<path d="M18.4096 32.8074C18.7868 34.0724 19.5546 35.1855 20.603 35.9874C21.6515 36.7893 22.9269 37.2389 24.2464 37.2716C25.566 37.3044 26.8621 36.9187 27.9491 36.1699C29.0361 35.421 29.8582 34.3473 30.2977 33.1027C26.3492 33.7424 22.3227 33.6424 18.4096 32.8074Z" fill="#40513B"/>
</svg>
