<svg width="23" height="25" viewBox="0 0 23 25" fill="none" xmlns="http://www.w3.org/2000/svg">
<path opacity="0.5" d="M19.6884 8.75035V9.63039C19.6884 10.6867 19.9884 11.7192 20.5534 12.598L21.9385 14.7518C23.2023 16.7194 22.2372 19.3933 20.0384 20.0146C14.2929 21.6421 8.20821 21.6421 2.46268 20.0146C0.263838 19.3933 -0.701201 16.7194 0.5626 14.7518L1.94766 12.598C2.51465 11.7122 2.81532 10.6821 2.81394 9.63039V8.75035C2.81394 3.91766 6.59159 0 11.2505 0C15.9095 0 19.6884 3.91766 19.6884 8.75035Z" fill="#E3F2C1"/>
<path d="M5.30404 20.6821C5.71249 21.9373 6.50769 23.031 7.57575 23.8067C8.64381 24.5823 9.92993 25 11.2499 25C12.5699 25 13.856 24.5823 14.9241 23.8067C15.9921 23.031 16.7873 21.9373 17.1958 20.6821C13.2644 21.4196 9.2367 21.4196 5.30404 20.6821Z" fill="#E3F2C1"/>
<circle cx="5" cy="6" r="5" fill="#FFED00"/>
</svg>
