<svg width="174" height="114" viewBox="0 0 174 114" fill="none" xmlns="http://www.w3.org/2000/svg">
<g clip-path="url(#clip0_453_2)">
<path d="M19.5053 2.00615C22.8902 2.00615 26.2757 1.98948 29.6606 2.01215C31.6606 2.02548 33.5912 2.38083 35.2774 3.58156C37.4704 5.14297 38.635 7.32975 38.8949 10.0332C38.9644 10.7586 38.993 11.4913 38.9936 12.2207C39.0008 18.931 39.0047 25.6407 38.9936 32.351C38.9904 34.4198 38.6493 36.4139 37.473 38.1606C35.9017 40.4947 33.6821 41.6708 30.9617 41.9068C30.2381 41.9695 29.5086 41.9928 28.7824 41.9935C22.3309 42.0001 15.8794 42.0062 9.42792 41.9915C7.66824 41.9875 5.94039 41.7388 4.38013 40.8281C1.78771 39.314 0.407382 36.9826 0.105983 33.9644C0.0332317 33.2397 0.00789863 32.5063 0.00724906 31.7776C-0.000545742 25.0666 -0.00314401 18.357 0.00594993 11.6466C0.0085482 9.7252 0.298255 7.86044 1.30703 6.19236C2.67502 3.92891 4.66724 2.59818 7.22589 2.20749C8.16581 2.06415 9.12652 2.02148 10.0788 2.01482C13.2207 1.99148 16.3633 2.00615 19.5053 2.00615ZM16.0626 11.724C16.0626 12.9667 16.0509 14.0861 16.0665 15.2048C16.0782 16.0422 16.6589 16.6502 17.4221 16.6669C18.1802 16.6836 18.822 16.0849 18.8291 15.2615C18.8499 12.928 18.8505 10.5932 18.8291 8.2598C18.8213 7.42309 18.2373 6.87573 17.4254 6.85973C16.8642 6.84906 16.3029 6.85706 15.7417 6.85706C14.0424 6.85706 12.3432 6.84839 10.6439 6.86173C9.83455 6.86839 9.26488 7.48309 9.27397 8.28846C9.28242 9.06784 9.85274 9.6552 10.6348 9.6832C10.8927 9.69253 11.1506 9.6852 11.4084 9.6852C12.2652 9.6852 13.122 9.6852 13.9788 9.6852C14.0249 9.75187 14.071 9.81854 14.1165 9.88588C13.9703 9.96788 13.7956 10.0199 13.6819 10.1359C12.045 11.802 10.4159 13.4761 8.78615 15.1488C8.65753 15.2808 8.52112 15.4082 8.41329 15.5575C8.07747 16.0235 8.02226 16.5342 8.27818 17.0502C8.54321 17.5843 8.99726 17.8989 9.57277 17.8029C9.93393 17.7423 10.3308 17.5456 10.5926 17.2842C12.288 15.5908 13.9509 13.8634 15.6254 12.148C15.7398 12.0307 15.8606 11.92 16.0619 11.7246L16.0626 11.724ZM18.6375 34.2558C19.3007 34.8318 20.0685 34.5518 20.8077 34.5991V31.453H19.7924V33.6497C18.9109 33.7411 18.8408 33.6777 18.8395 32.8444C18.8395 32.495 18.8395 32.1457 18.8395 31.797H17.7989C17.7989 32.2523 17.7865 32.6703 17.8028 33.0877C17.8171 33.4537 17.7352 33.6964 17.3137 33.6871C16.909 33.6784 16.7407 33.4684 16.7453 33.071C16.7498 32.655 16.7459 32.239 16.7459 31.8003H15.7521C15.7339 31.857 15.7248 31.871 15.7248 31.8856C15.7183 32.7564 15.7437 33.6284 15.6904 34.4964C15.6716 34.8058 15.541 35.2038 15.3221 35.3825C14.9375 35.6965 14.4257 35.6492 13.9781 35.4498C13.5644 35.2651 13.465 34.8678 13.4656 34.4378C13.4656 34.0718 13.4656 33.7064 13.4656 33.3344H12.4737C12.4737 33.8771 12.4302 34.4051 12.4835 34.9218C12.5718 35.7752 13.0798 36.3185 13.9086 36.4399C14.3529 36.5052 14.8206 36.5019 15.2656 36.4392C16.0697 36.3259 16.5511 35.7792 16.6712 34.9505C16.6966 34.7751 16.7187 34.5984 16.7433 34.4111C17.4423 34.6744 18.0665 34.7518 18.6375 34.2551V34.2558ZM16.4406 23.9752C16.4114 23.7786 16.3926 23.6106 16.3614 23.4452C16.0912 22.0071 15.1175 21.3271 13.7144 21.5958C13.0142 21.7298 12.9239 21.9018 13.1694 22.6385C14.7784 22.4198 15.4364 22.8225 15.3247 24.0426C14.7596 24.0426 14.1808 23.9932 13.6137 24.0546C12.8524 24.1373 12.2587 24.5359 12.0314 25.328C11.7995 26.1334 11.8586 26.9134 12.4809 27.5368C13.2941 28.3521 15.1337 28.3061 15.9606 27.4581C15.8391 27.2374 15.7164 27.0134 15.5982 26.7987C15.3026 26.8954 15.0629 26.9967 14.8135 27.0494C14.5634 27.1027 14.3016 27.1421 14.0483 27.1274C13.2285 27.0794 12.7719 26.4074 13.0155 25.64C13.1623 25.1766 13.5351 24.934 14.1724 24.9293C15.4319 24.92 16.6907 24.926 17.9502 24.926C18.2036 24.926 18.4575 24.926 18.7362 24.926V21.7465H17.7398V23.9766H16.4413L16.4406 23.9752ZM21.4982 29.0502C21.4982 30.6089 21.48 32.1163 21.5066 33.6231C21.5177 34.2471 21.9042 34.5864 22.5596 34.6044C23.378 34.6264 24.1978 34.6284 25.0162 34.6071C25.9652 34.5824 26.5232 33.8737 26.2537 32.941C26.1328 32.523 25.8029 32.153 25.5151 31.807C25.3176 31.5696 25.0305 31.4103 24.7473 31.1883C25.1864 30.9703 25.5859 30.7843 25.9711 30.5716C26.0874 30.5076 26.2309 30.3762 26.2452 30.2616C26.2829 29.9489 26.2582 29.6282 26.2582 29.2322C25.3631 29.7182 24.5433 30.1489 23.7392 30.6076C23.43 30.7836 23.5151 31.7396 23.8132 31.949C24.2478 32.2537 24.6791 32.5683 25.0747 32.923C25.1936 33.0297 25.2715 33.3184 25.215 33.4577C25.1643 33.5811 24.9032 33.6677 24.7304 33.6757C24.1705 33.7024 23.608 33.6691 23.048 33.6917C22.6538 33.7077 22.5037 33.5504 22.5089 33.149C22.5232 32.107 22.5134 31.0649 22.5134 30.0229C22.5134 29.7029 22.5134 29.3829 22.5134 29.0502H21.4982ZM22.2159 26.8967C22.7596 26.7981 23.2695 26.7494 23.7541 26.6074C24.3939 26.4194 24.8032 25.9273 24.8603 25.2613C24.9298 24.4459 24.9448 23.6146 24.8714 22.8005C24.7928 21.9331 24.1185 21.4665 23.2507 21.5458C22.3965 21.6245 21.8067 22.3532 21.8015 23.3365C21.797 24.2279 22.2913 24.8386 23.0922 24.91C23.341 24.932 23.593 24.9133 23.8873 24.9133C23.6463 25.8667 22.898 25.7853 22.2166 25.8687V26.8961L22.2159 26.8967ZM26.6479 24.8986V19.3764H25.6606V24.8986H26.6479ZM19.1662 26.7747C20.1692 26.9427 20.9564 26.5494 21.0136 25.71C21.1026 24.4019 21.037 23.0825 21.037 21.7425H20.0847C20.0847 21.9311 20.0847 22.0985 20.0847 22.2658C20.0841 23.1832 20.0932 24.1006 20.0782 25.018C20.0685 25.634 19.9249 25.7747 19.3358 25.8447C19.2806 25.8513 19.2273 25.878 19.1656 25.8973V26.7741L19.1662 26.7747ZM18.8928 28.8508C18.8518 28.5061 18.6726 28.3008 18.3406 28.2768C18.0399 28.2548 17.7528 28.5635 17.7813 28.8762C17.8125 29.2182 18.01 29.4155 18.3491 29.4075C18.6927 29.4002 18.8551 29.1795 18.8928 28.8502V28.8508ZM18.2692 19.761C17.9307 19.7837 17.7313 19.965 17.6924 20.2997C17.656 20.6137 17.9307 20.9051 18.2451 20.8924C18.581 20.8791 18.7778 20.6871 18.7843 20.3404C18.7908 19.993 18.5907 19.8104 18.2692 19.761ZM17.6885 29.4482C17.3624 29.4835 17.1532 29.6495 17.1266 29.9962C17.1019 30.3149 17.376 30.6069 17.6859 30.5856C18.0184 30.5629 18.2205 30.3642 18.2224 30.0215C18.225 29.6762 18.0152 29.4962 17.6885 29.4475V29.4482ZM18.9584 29.4482C18.6303 29.4855 18.4303 29.6622 18.4088 30.0062C18.3887 30.3262 18.6674 30.6122 18.9766 30.5856C19.3091 30.5562 19.5047 30.3522 19.5008 30.0109C19.4962 29.6675 19.289 29.4869 18.959 29.4482H18.9584ZM14.3679 25.9607C14.2224 26.1694 14.0502 26.314 14.073 26.4087C14.1061 26.5454 14.2815 26.6454 14.3965 26.7614C14.5004 26.6367 14.6654 26.522 14.6875 26.384C14.7031 26.2867 14.5238 26.1567 14.3679 25.9613V25.9607ZM14.4543 25.7353C14.2529 25.5727 14.1178 25.3867 14.0243 25.4067C13.8917 25.4347 13.7891 25.6147 13.6741 25.7293C13.7813 25.8367 13.8813 26.018 13.9989 26.0314C14.1113 26.044 14.2425 25.882 14.4543 25.7353ZM15.2292 25.7233C15.0207 25.566 14.8791 25.3833 14.7842 25.4053C14.6498 25.4367 14.5485 25.62 14.4335 25.738C14.5472 25.842 14.6543 26.018 14.7758 26.0287C14.8895 26.0387 15.0181 25.874 15.2299 25.7227L15.2292 25.7233Z" fill="black"/>
<path d="M16.0625 11.7238C15.8605 11.9192 15.7403 12.0298 15.626 12.1472C13.9514 13.8626 12.2892 15.5907 10.5931 17.2834C10.3314 17.5448 9.93448 17.7415 9.57332 17.8021C8.99845 17.8988 8.54375 17.5834 8.27873 17.0494C8.0228 16.5334 8.07801 16.0227 8.41384 15.5567C8.52102 15.408 8.65808 15.28 8.78669 15.148C10.4165 13.4752 12.0456 11.8012 13.6825 10.1351C13.7962 10.0197 13.9709 9.96707 14.117 9.88506C14.0709 9.81839 14.0248 9.75172 13.9793 9.68439C13.1226 9.68439 12.2658 9.68439 11.409 9.68439C11.1511 9.68439 10.8932 9.69105 10.6354 9.68239C9.85328 9.65438 9.28361 9.06702 9.27451 8.28765C9.26542 7.48227 9.83509 6.86758 10.6445 6.86091C12.3437 6.84758 14.043 6.85624 15.7423 6.85624C16.3035 6.85624 16.8654 6.84824 17.4259 6.85891C18.2379 6.87491 18.8219 7.42227 18.8296 8.25898C18.8511 10.5924 18.8511 12.9272 18.8296 15.2607C18.8225 16.084 18.1807 16.6827 17.4227 16.6661C16.6594 16.6494 16.0781 16.0414 16.067 15.204C16.0514 14.0853 16.0631 12.9659 16.0631 11.7232L16.0625 11.7238Z" fill="white"/>
<path d="M23.0797 11.6158C23.2818 11.4205 23.4019 11.3098 23.5163 11.1925C25.1908 9.47704 26.8531 7.74895 28.5491 6.0562C28.8109 5.79486 29.2078 5.59818 29.5689 5.53751C30.1438 5.44084 30.5985 5.75619 30.8635 6.29021C31.1194 6.80624 31.0642 7.31693 30.7284 7.78295C30.6212 7.93163 30.4842 8.05964 30.3555 8.19164C28.7258 9.86439 27.0967 11.5385 25.4598 13.2046C25.3461 13.3199 25.1713 13.3726 25.0252 13.4546C25.0713 13.5212 25.1174 13.5879 25.1629 13.6552C26.0197 13.6552 26.8765 13.6552 27.7332 13.6552C27.9911 13.6552 28.249 13.6486 28.5069 13.6572C29.289 13.6853 29.8586 14.2726 29.8677 15.052C29.8768 15.8574 29.3071 16.4721 28.4978 16.4787C26.7985 16.4921 25.0992 16.4834 23.4 16.4834C22.8388 16.4834 22.2769 16.4914 21.7163 16.4807C20.9043 16.4647 20.3204 15.9174 20.3126 15.0807C20.2911 12.7472 20.2911 10.4124 20.3126 8.07897C20.3197 7.2556 20.9615 6.6569 21.7195 6.67357C22.4828 6.69023 23.0642 7.29826 23.0752 8.13564C23.0908 9.25436 23.0791 10.3738 23.0791 11.6165L23.0797 11.6158Z" fill="#FF7900"/>
<path d="M18.6367 34.2556C18.0658 34.7523 17.4409 34.675 16.7426 34.4116C16.7173 34.599 16.6958 34.775 16.6705 34.951C16.551 35.7797 16.069 36.3264 15.2648 36.4397C14.8199 36.5024 14.3522 36.5057 13.9079 36.4404C13.079 36.3191 12.5711 35.775 12.4827 34.9223C12.4295 34.405 12.473 33.8776 12.473 33.3349H13.4649C13.4649 33.7069 13.4649 34.0723 13.4649 34.4383C13.4649 34.8677 13.5636 35.2657 13.9774 35.4504C14.4249 35.6497 14.9361 35.6977 15.3213 35.383C15.5402 35.2043 15.6708 34.8057 15.6896 34.497C15.7429 33.6296 15.7176 32.7569 15.7241 31.8862C15.7241 31.8715 15.7332 31.8568 15.7514 31.8008H16.7452C16.7452 32.2395 16.7484 32.6556 16.7445 33.0716C16.7406 33.4689 16.9082 33.6783 17.3129 33.6876C17.7345 33.6969 17.817 33.4543 17.802 33.0882C17.7858 32.6716 17.7981 32.2535 17.7981 31.7975H18.8387C18.8387 32.1462 18.8387 32.4955 18.8387 32.8449C18.84 33.6776 18.9108 33.7416 19.7917 33.6503V31.4535H20.8069V34.5996C20.0684 34.5523 19.2999 34.833 18.6367 34.2563V34.2556Z" fill="white"/>
<path d="M16.4399 23.9751H17.7384V21.745H18.7348V24.9245C18.4562 24.9245 18.2022 24.9245 17.9489 24.9245C16.6894 24.9245 15.4305 24.9185 14.171 24.9278C13.5331 24.9325 13.1609 25.1751 13.0141 25.6385C12.7712 26.4059 13.2272 27.0779 14.0469 27.1259C14.3002 27.1406 14.562 27.1012 14.8121 27.0479C15.0615 26.9952 15.3012 26.8939 15.5968 26.7972C15.715 27.0119 15.8378 27.2359 15.9592 27.4566C15.1323 28.3046 13.2928 28.3506 12.4795 27.5353C11.8579 26.9112 11.7988 26.1319 12.03 25.3265C12.2574 24.5351 12.8511 24.1364 13.6124 24.0531C14.1794 23.9911 14.7582 24.0411 15.3233 24.0411C15.435 22.8217 14.777 22.4183 13.168 22.637C12.9225 21.9003 13.0128 21.7283 13.713 21.5943C15.1161 21.3256 16.0898 22.0057 16.36 23.4437C16.3912 23.6091 16.41 23.7771 16.4393 23.9738L16.4399 23.9751Z" fill="white"/>
<path d="M21.4981 29.05H22.5133C22.5133 29.3827 22.5133 29.7027 22.5133 30.0227C22.5133 31.0648 22.5231 32.1068 22.5088 33.1489C22.5036 33.5509 22.653 33.7076 23.0479 33.6916C23.6079 33.6689 24.1704 33.7022 24.7303 33.6756C24.9031 33.6676 25.1642 33.5809 25.2149 33.4576C25.2721 33.3182 25.1941 33.0296 25.0746 32.9229C24.679 32.5682 24.2477 32.2535 23.8131 31.9488C23.5143 31.7395 23.4299 30.7834 23.7391 30.6074C24.5432 30.1487 25.3623 29.7181 26.2581 29.232C26.2581 29.628 26.2828 29.9487 26.2451 30.2614C26.2308 30.3768 26.0873 30.5074 25.971 30.5714C25.5858 30.7841 25.1863 30.9694 24.7472 31.1881C25.0304 31.4101 25.3175 31.5688 25.515 31.8068C25.8027 32.1528 26.1327 32.5229 26.2535 32.9409C26.5231 33.8729 25.9651 34.5823 25.0161 34.607C24.1977 34.6283 23.3779 34.6263 22.5595 34.6043C21.9047 34.5863 21.5176 34.2476 21.5065 33.6229C21.4799 32.1162 21.4981 30.6088 21.4981 29.05Z" fill="white"/>
<path d="M22.2158 26.8966V25.8692C22.8972 25.7859 23.6455 25.8665 23.8865 24.9138C23.5923 24.9138 23.3402 24.9325 23.0914 24.9105C22.2912 24.8391 21.7962 24.2284 21.8008 23.3371C21.8059 22.3537 22.3958 21.625 23.2499 21.5463C24.1178 21.4663 24.792 21.9337 24.8706 22.801C24.944 23.6151 24.9291 24.4465 24.8596 25.2618C24.8024 25.9279 24.3938 26.4199 23.7533 26.6079C23.2694 26.7499 22.7589 26.7992 22.2152 26.8972L22.2158 26.8966ZM23.9255 23.4931C23.9118 22.7717 23.7423 22.4784 23.3701 22.4817C23.0213 22.4844 22.816 22.7917 22.8225 23.2997C22.829 23.7924 23.0343 24.0158 23.4565 24.0258C23.8703 24.0351 23.993 23.8231 23.9255 23.4937V23.4931Z" fill="white"/>
<path d="M26.6472 24.8985H25.6599V19.3762H26.6472V24.8985Z" fill="white"/>
<path d="M19.1661 26.7739V25.8972C19.2278 25.8772 19.2811 25.8512 19.3363 25.8445C19.9255 25.7745 20.0684 25.6338 20.0788 25.0178C20.0937 24.1004 20.084 23.183 20.0853 22.2657C20.0853 22.0983 20.0853 21.931 20.0853 21.7423H21.0375C21.0375 23.0824 21.1031 24.4018 21.0142 25.7098C20.957 26.5492 20.1704 26.9426 19.1668 26.7746L19.1661 26.7739Z" fill="white"/>
<path d="M18.8927 28.8507C18.855 29.18 18.692 29.4 18.349 29.408C18.0099 29.4154 17.8124 29.2187 17.7813 28.8767C17.7527 28.564 18.0398 28.2553 18.3405 28.2773C18.6731 28.3013 18.8524 28.5067 18.8927 28.8514V28.8507Z" fill="white"/>
<path d="M18.2684 19.7602C18.59 19.8102 18.79 19.9922 18.7835 20.3396C18.777 20.6856 18.5802 20.8776 18.2444 20.8916C17.93 20.9043 17.6552 20.6129 17.6916 20.2989C17.7306 19.9642 17.93 19.7829 18.2684 19.7602Z" fill="white"/>
<path d="M17.6884 29.4474C18.0151 29.4961 18.2249 29.6754 18.2223 30.0214C18.2197 30.3641 18.0183 30.5628 17.6858 30.5854C17.3759 30.6068 17.1018 30.3148 17.1265 29.9961C17.1531 29.6494 17.3623 29.4834 17.6884 29.4481V29.4474Z" fill="white"/>
<path d="M18.9576 29.448C19.2882 29.4867 19.4948 29.668 19.4993 30.0107C19.5039 30.3521 19.3077 30.5561 18.9751 30.5854C18.6659 30.6121 18.3879 30.3267 18.4074 30.0061C18.4288 29.662 18.6289 29.4854 18.9569 29.448H18.9576Z" fill="white"/>
<path d="M14.3671 25.9605C14.523 26.1559 14.7023 26.2859 14.6867 26.3832C14.6646 26.5219 14.4996 26.6359 14.3957 26.7606C14.2807 26.6452 14.106 26.5446 14.0722 26.4079C14.0488 26.3132 14.2216 26.1685 14.3671 25.9599V25.9605Z" fill="white"/>
<path d="M14.4535 25.7352C14.2411 25.8825 14.1106 26.0439 13.9982 26.0312C13.8806 26.0179 13.7812 25.8372 13.6734 25.7292C13.7884 25.6145 13.891 25.4345 14.0235 25.4065C14.1171 25.3865 14.2522 25.5725 14.4535 25.7352Z" fill="white"/>
<path d="M15.2284 25.7232C15.0173 25.8745 14.8887 26.0392 14.7744 26.0292C14.6529 26.0185 14.5457 25.8425 14.4321 25.7385C14.5477 25.6205 14.6484 25.4372 14.7828 25.4058C14.8783 25.3832 15.0193 25.5659 15.2278 25.7239L15.2284 25.7232Z" fill="white"/>
<path d="M23.9255 23.4931C23.9924 23.8224 23.8703 24.0344 23.4565 24.0251C23.0343 24.0158 22.829 23.7924 22.8225 23.2991C22.816 22.791 23.0213 22.4843 23.3701 22.481C23.7423 22.4777 23.9119 22.771 23.9255 23.4924V23.4931Z" fill="black"/>
</g>
<g clip-path="url(#clip1_453_2)">
<path d="M81.9495 42.383C83.3872 40.5355 84.8565 38.7139 86.3104 36.8793C86.4147 36.7472 86.4865 36.5884 86.6232 36.3587C85.989 36.3587 85.471 36.3959 84.9599 36.3484C84.4043 36.2966 84.0599 36.515 83.7274 36.9553C82.7162 38.296 81.6401 39.5858 80.6281 40.9248C80.1144 41.6043 79.4904 41.7312 78.6109 41.5482C79.9691 39.8163 81.27 38.157 82.6795 36.3596C81.9803 36.3596 81.4435 36.3993 80.9161 36.3484C80.3563 36.294 80.011 36.5176 79.6793 36.9544C78.6357 38.3297 77.5587 39.6782 76.4826 41.0276C75.9612 41.6811 75.4543 41.7899 74.6167 41.4515C75.9133 39.7991 77.2023 38.1553 78.6006 36.3734C77.9203 36.3734 77.4057 36.4157 76.9006 36.3622C76.2843 36.2974 75.9074 36.5538 75.5475 37.0364C74.6723 38.2114 73.7534 39.3553 72.832 40.4949C71.8439 41.7182 70.5473 42.1646 69.1199 42.0083C69.3985 41.7605 69.755 41.5214 70.0122 41.2011C71.2721 39.6359 72.5064 38.0491 73.7474 36.4692C74.356 35.6948 74.9612 34.917 75.6715 34.0096H64C65.4043 34.8488 66.8112 34.7512 68.1822 34.7918C69.5678 34.8333 70.955 34.8013 72.532 34.8013C70.9824 36.7705 69.5532 38.5015 68.225 40.3076C67.5395 41.2391 66.7993 41.9151 65.5958 41.8978C65.5847 41.8978 65.5727 41.9323 65.5172 42.0247H66.8497C66.3975 42.5738 66.1189 43.1306 65.671 43.3948C65.2009 43.6719 64.5693 43.6685 64.0077 43.7876C66.5522 43.8429 69.0908 43.8748 71.6277 43.8161C72.1226 43.8049 72.6072 43.4328 73.1004 43.2377C73.4508 43.0987 73.8056 42.8682 74.1611 42.863C76.4185 42.8285 78.6759 42.8362 80.9341 42.8535C81.3691 42.857 81.6674 42.7464 81.9495 42.3847V42.383Z" fill="#ED1C24"/>
<path d="M95.9373 34.0416C95.4809 34.0364 95.2116 34.197 94.9475 34.5518C93.6765 36.2595 92.3799 37.9473 91.0961 39.6437C90.9619 39.8207 90.8465 40.0123 90.6123 40.362H96.3237C95.9997 40.8057 95.7655 41.0716 95.5946 41.3738C95.2424 41.998 94.7569 42.206 94.0338 42.1879C91.9654 42.1352 89.8952 42.1698 87.825 42.1698H86.8104C86.7882 42.1093 86.7651 42.0489 86.7429 41.9876C87.7062 42.0644 88.0498 41.3298 88.5062 40.7531C90.1063 38.732 91.6978 36.7049 93.2902 34.6787C93.427 34.5052 93.5458 34.317 93.7347 34.0468C93.0902 34.0468 92.5697 34.0951 92.0628 34.0347C91.444 33.9613 91.0756 34.2289 90.7123 34.6986C88.9336 36.9993 87.0951 39.2543 85.3394 41.5723C84.518 42.6567 83.7513 43.7574 82.3598 43.9007C86.607 43.9655 90.82 43.9353 95.0313 44C96.039 44.0155 96.5254 43.5908 96.9066 42.768C96.7502 42.6791 96.6117 42.5997 96.4108 42.4857C97.2314 42.4055 98.6332 40.9741 98.675 40.2402C98.6853 40.0598 98.6374 39.8595 98.5614 39.6946C98.3101 39.1507 97.8836 38.8745 97.2741 38.8814C96.3476 38.8917 95.4202 38.884 94.2894 38.884C95.08 37.7729 95.745 36.8388 96.5416 35.7182C97.7391 35.7182 99.1511 35.6767 100.559 35.7303C101.783 35.7769 102.41 35.0551 103.003 34.0537C100.588 34.0537 98.2639 34.0675 95.9399 34.0416H95.9373Z" fill="#ED1C24"/>
<path d="M82.3581 43.8996C82.1093 43.8962 81.8615 43.8928 81.6127 43.8886C81.8803 43.9205 82.1273 43.9222 82.3581 43.8996Z" fill="#ED1C24"/>
<path d="M78.7758 29.8778C81.9734 29.8873 85.171 29.8865 88.3686 29.8778C89.7695 29.8744 90.8542 28.9239 90.8738 27.5244C90.9225 24.0634 90.8901 20.6014 90.8901 17.0964C90.2191 17.0549 90.049 17.3424 90.0524 17.9062C90.0721 20.9416 90.0661 23.9779 90.0601 27.0142C90.0567 28.4715 89.4772 29.0568 88.0592 29.0577C85.0736 29.0594 82.0871 29.0603 79.1015 29.0577C77.7348 29.0568 77.1168 28.443 77.1159 27.0643C77.1117 18.9732 77.1117 10.8822 77.1185 2.79028C77.1185 2.48726 77.1536 2.16696 77.257 1.88552C77.4912 1.25012 77.9921 0.866804 78.6485 0.854717C79.2075 0.844357 79.9263 0.500756 80.2118 1.44868C80.2793 1.67315 80.7794 1.88811 81.0862 1.89588C82.7538 1.93905 84.4231 1.92523 86.0924 1.9097C86.6001 1.90538 86.9933 1.69732 87.1437 1.1422C87.1771 1.01961 87.3395 0.875437 87.4668 0.843494C89.0113 0.466223 90.0627 1.30796 90.0678 2.91892C90.0721 4.34167 90.0866 5.76529 90.0558 7.18804C90.043 7.77078 90.2481 8.07294 90.8695 8.11524C90.8695 6.12788 90.9439 4.1621 90.8439 2.20409C90.7755 0.874574 89.7276 0.0147063 88.419 0.00952638C85.1984 -0.00428675 81.9768 -0.00515007 78.7562 0.00952638C77.3519 0.0164329 76.3048 1.07486 76.3031 2.49675C76.2937 10.8028 76.2928 19.1096 76.3031 27.4156C76.3048 28.828 77.3732 29.8718 78.7784 29.8761L78.7758 29.8778Z" fill="#ED1C24"/>
<path d="M83.0325 14.8448C85.2753 13.1734 87.1122 11.1317 88.4558 8.66342C88.7353 8.14975 88.9721 8.14629 89.4328 8.37594C91.2209 9.26861 93.0244 10.1285 94.8245 10.9944C95.0527 11.104 95.298 11.1765 95.5356 11.2672C95.5783 11.1671 95.6211 11.0669 95.6638 10.9668C93.3372 9.82632 91.0098 8.68501 88.6336 7.52039C86.3523 12.2427 82.7932 15.469 77.8835 17.1809C80.0529 17.5712 82.2017 17.8267 84.4761 17.6696C84.0334 16.1355 83.571 14.6566 85.5061 13.7095V14.6065C85.5369 14.559 85.5668 14.5116 85.5976 14.4641C86.0745 14.9225 86.5514 15.3801 87.0592 15.8687C87.0814 14.9311 85.895 14.439 86.2232 13.4039C86.9745 13.58 87.6216 13.6923 88.2413 13.8917C88.6285 14.016 88.9849 14.256 89.3319 14.4805C89.4302 14.5444 89.5037 14.8474 89.4926 14.8526C88.7268 15.2514 89.2593 15.652 89.5789 16.1087C89.0627 16.1795 88.6336 16.2373 88.2037 16.296C88.1934 16.353 88.184 16.41 88.1737 16.467C88.402 16.5188 88.631 16.6172 88.8575 16.6112C89.2473 16.6017 89.6362 16.5265 90.0251 16.4791C89.4755 16.6578 88.9293 16.8537 88.3737 17.0117C87.8139 17.1714 87.2438 17.2932 86.6788 17.4322C90.9029 16.8468 94.6569 15.33 97.4955 11.9225C96.4134 11.205 96.2809 11.1653 95.8365 11.445C96.1707 11.635 96.4835 11.8137 96.8955 12.0485C95.1484 14.3769 92.8611 15.69 90.2097 16.4514C90.4285 16.3228 90.6422 16.1829 90.8687 16.0673C91.6833 15.6503 92.5303 15.2885 93.3133 14.8172C94.4629 14.1248 95.4459 13.2218 96.275 12.2056C95.7194 11.3648 95.3262 12.1625 94.8151 12.3274C95.0125 12.0356 95.1535 11.8284 95.286 11.6324C94.7963 11.2223 94.3595 11.1506 93.9424 11.6902C93.9962 11.4778 94.0492 11.2655 94.1142 11.0108C92.7209 10.3331 91.3542 9.66833 89.9781 8.99925C89.6969 9.34372 89.4541 9.64156 89.1028 10.0724C89.3775 9.20731 89.3672 8.72587 89.0721 8.62803C88.0994 9.90833 87.1976 11.2094 86.1779 12.4076C85.1557 13.6094 83.9274 14.5936 82.5325 15.3378C82.6658 15.1288 82.8462 14.9829 83.0325 14.8439V14.8448ZM89.9208 11.1437C89.8789 11.1679 89.8362 11.193 89.7943 11.2171C89.8371 11.193 89.8789 11.1679 89.9208 11.1437ZM89.802 12.513C89.802 12.513 89.7883 12.4992 89.7815 12.4931C89.7883 12.5 89.802 12.513 89.8029 12.5138L89.802 12.513ZM89.2165 12.064C89.1575 12.0183 89.0951 11.9708 89.0293 11.9207C89.0951 11.9708 89.1575 12.0192 89.2165 12.064Z" fill="#ED1C24"/>
<path d="M77.6587 16.9245C79.0682 16.2546 80.4178 15.6132 81.8068 14.9536C81.2469 14.3044 80.8213 13.8097 80.4383 13.3659C79.658 14.035 78.9229 14.768 78.0844 15.3498C77.504 15.7522 77.4262 16.1622 77.6587 16.9254V16.9245Z" fill="#ED1C24"/>
<path d="M80.6127 35.7665C82.5905 36.0997 83.5068 35.6819 84.0521 34.1987C82.0589 33.8845 81.4144 34.1789 80.6127 35.7665Z" fill="#ED1C24"/>
<path d="M84.8445 35.7889C86.2992 36.0151 87.6591 35.997 88.2498 34.2108C86.3676 33.8517 85.3308 34.3343 84.8445 35.7889Z" fill="#ED1C24"/>
<path d="M76.527 35.7294C78.2228 36.2258 79.2203 35.7959 79.987 34.2393C78.2177 33.7869 77.4664 34.1107 76.527 35.7294Z" fill="#ED1C24"/>
<path d="M71.6285 35.422C71.6003 35.3651 71.5721 35.3072 71.5448 35.2502H65.0633C65.2659 35.441 65.4949 35.5585 65.7308 35.5723C67.4796 35.675 69.2293 35.7717 70.9806 35.8252C71.1926 35.8313 71.4131 35.5636 71.6294 35.4229L71.6285 35.422Z" fill="#ED1C24"/>
<path d="M82.0982 14.6143C82.1427 14.5659 82.1871 14.5185 82.2316 14.4701C81.6008 13.7043 80.97 12.9377 80.5674 12.4482C79.8383 13.1984 79.0973 13.9607 78.3545 14.7257C79.0468 14.0747 79.7417 13.4212 80.4469 12.7573C80.9614 13.3616 81.3281 14.2068 82.0991 14.6134L82.0982 14.6143Z" fill="#ED1C24"/>
<path d="M77.7169 15.3257C77.7263 15.3343 77.7365 15.3429 77.7459 15.3516C77.9485 15.1427 78.1511 14.9346 78.3536 14.7265C78.1408 14.926 77.9288 15.1262 77.7169 15.3257Z" fill="#ED1C24"/>
<path d="M86.1121 27.407H80.9366C81.6845 27.8386 85.7052 27.7929 86.1121 27.407Z" fill="#ED1C24"/>
<path d="M66.2967 36.2249C67.5694 36.7041 70.4217 36.6998 70.8054 36.2249H66.2967Z" fill="#ED1C24"/>
<path d="M75.686 16.8304C75.4056 16.7061 75.1244 16.5818 74.7586 16.4204C75.2065 16.2779 75.5526 16.1683 75.8988 16.0578C75.8903 15.9965 75.8809 15.9343 75.8723 15.873C75.2159 16.0448 74.5594 16.2158 73.7474 16.4281C74.4911 16.6155 75.0774 16.764 75.6638 16.9116C75.6715 16.8848 75.6791 16.8572 75.6868 16.8304H75.686Z" fill="#ED1C24"/>
<path d="M68.0797 37.071H70.1712C70.1712 37.0339 70.1729 36.9967 70.1738 36.9596H68.0993C68.0925 36.9967 68.0865 37.0339 68.0797 37.071Z" fill="#ED1C24"/>
</g>
<g clip-path="url(#clip2_453_2)">
<path d="M150.311 33.1744C149.384 34.0206 148.474 34.5611 147.37 34.7219C145.031 35.0621 142.767 33.6358 142.062 31.3827C141.225 28.7112 142.757 25.8662 145.421 25.2128C148.965 24.3439 151.66 27.1485 151.577 29.7872C151.532 31.2017 151.544 32.6187 151.584 34.0332C151.598 34.5577 151.341 34.5695 150.945 34.5619C150.57 34.5544 150.222 34.5889 150.305 34.0458C150.341 33.8151 150.311 33.5743 150.311 33.1735V33.1744ZM146.723 26.2973C144.659 26.3503 143.024 28.0149 143.095 29.9918C143.167 31.9847 144.854 33.5693 146.845 33.5145C148.675 33.464 150.356 31.7388 150.313 29.9564C150.262 27.8734 148.667 26.2476 146.724 26.2973H146.723Z" fill="#BEBD2D"/>
<path d="M156.421 26.5456C156.421 27.3825 156.439 28.1664 156.412 28.9486C156.401 29.287 156.667 29.2887 156.849 29.3536C157.715 29.6626 158.36 30.1812 158.646 31.0585C159.078 32.3855 158.453 33.7705 157.086 34.3658C156.551 34.599 156.305 34.8911 156.415 35.4494C156.514 35.9444 156.245 36.0017 155.82 36C155.395 35.9992 155.117 35.9402 155.211 35.446C155.317 34.8869 155.095 34.6074 154.535 34.3784C153.549 33.9759 153.026 33.171 152.887 32.1253C152.851 31.8542 152.906 31.7607 153.187 31.7498C153.706 31.7296 154.24 31.6538 154.294 32.3922C154.299 32.4671 154.351 32.5421 154.393 32.6103C154.561 32.889 154.779 33.2737 155.084 33.2081C155.385 33.1432 155.198 32.7172 155.209 32.4562C155.237 31.8298 155.207 31.2008 155.223 30.5744C155.232 30.2545 155.154 30.0819 154.799 29.9581C153.75 29.5918 153.226 28.7987 153.2 27.7336C153.175 26.7216 153.625 25.9091 154.59 25.494C155.131 25.2616 155.297 24.9467 155.215 24.4222C155.145 23.9751 155.29 23.7672 155.817 23.7672C156.351 23.7672 156.485 23.9903 156.41 24.4289C156.319 24.9669 156.531 25.2549 157.058 25.4696C157.824 25.782 158.311 26.3654 158.422 27.2074C158.459 27.4886 158.396 27.6267 158.075 27.6082C157.633 27.5821 157.108 27.7597 157.043 27.0415C157.021 26.7974 156.793 26.6357 156.42 26.5465L156.421 26.5456ZM156.42 30.5685C156.42 31.3978 156.433 32.1607 156.414 32.9218C156.404 33.3344 156.58 33.3192 156.843 33.1365C157.354 32.7803 157.473 32.2533 157.405 31.6934C157.342 31.1705 157.075 30.7622 156.42 30.5685ZM155.176 26.5726C154.293 27.3076 154.325 28.1841 155.176 28.5756V26.5726Z" fill="#1A7E81"/>
<path d="M162.213 26.3865C163.227 25.5909 164.287 25.2541 165.461 25.3332C167.68 25.4839 169.317 27.204 169.358 29.4462C169.388 31.0451 169.344 32.6448 169.381 34.2437C169.392 34.7463 169.137 34.7615 168.776 34.7236C168.452 34.6899 168.012 34.9088 168.024 34.258C168.055 32.5985 168.061 30.9373 168.012 29.2795C167.961 27.5434 166.402 26.3242 164.636 26.5759C163.432 26.7477 162.291 27.9172 162.262 29.106C162.221 30.8051 162.217 32.5067 162.253 34.2066C162.264 34.7505 162.02 34.7901 161.588 34.7825C161.177 34.7758 160.907 34.7842 160.911 34.2201C160.94 30.3942 160.937 26.5684 160.914 22.7425C160.91 22.2474 161.099 22.1649 161.528 22.1986C161.891 22.2264 162.258 22.1018 162.229 22.7189C162.174 23.9019 162.214 25.0899 162.214 26.3873L162.213 26.3865Z" fill="#44A472"/>
<path d="M140.631 28.0031C139.875 28.046 139.26 27.9921 138.703 27.2823C137.436 25.6691 134.757 25.6986 133.195 27.2318C131.558 28.8408 131.61 31.0922 133.321 32.5732C134.992 34.0189 137.593 33.8311 138.961 32.1665C139.324 31.7254 139.381 31.7119 140.602 31.7759C140.331 33.411 137.933 34.9526 135.878 34.8137C132.809 34.6057 130.681 32.5488 130.681 29.788C130.681 27.2133 132.822 25.0444 135.57 24.8381C137.845 24.668 140.341 26.2215 140.631 28.0022V28.0031Z" fill="#197D81"/>
<path d="M168.484 16.2021C168.484 17.1249 168.496 17.8743 168.476 18.6228C168.471 18.8341 168.636 19.1397 168.268 19.2332C167.93 19.3191 167.538 19.3149 167.368 19.0084C167.141 18.6017 166.951 18.7407 166.651 18.8838C165.398 19.4791 164.135 19.4311 162.884 18.8644C161.941 18.4376 161.545 17.6705 161.655 16.5145C161.744 15.5884 162.331 14.8878 163.287 14.6875C164.255 14.4845 165.237 14.3423 166.215 14.1907C166.715 14.1132 167.09 13.9566 167.065 13.3656C167.04 12.772 166.7 12.559 166.138 12.5514C165.103 12.5371 164.067 12.5043 163.032 12.4908C162.616 12.4857 162.283 12.4074 162.266 11.9115C162.247 11.3786 162.607 11.2699 163.039 11.2691C164.139 11.2657 165.239 11.243 166.337 11.2843C167.522 11.3289 168.218 12.0277 168.39 13.166C168.552 14.2362 168.435 15.3071 168.483 16.2021H168.484ZM167.026 16.3343C167.026 16.0068 167.019 15.7845 167.027 15.5623C167.035 15.3694 166.989 15.2465 166.755 15.281C165.759 15.4292 164.725 15.4124 163.783 15.798C162.867 16.1735 162.728 17.428 163.561 17.9071C164.411 18.3971 165.35 18.355 166.238 17.9745C167.014 17.6419 167.078 16.9456 167.026 16.3335V16.3343Z" fill="#3B3B3B"/>
<path d="M157.734 16.4505C157.734 17.1788 157.741 17.908 157.727 18.6363C157.723 18.8535 157.857 19.1456 157.493 19.2408C157.187 19.3208 156.866 19.2913 156.703 19.0362C156.452 18.643 156.257 18.7306 155.886 18.9023C154.639 19.4791 153.345 19.4412 152.11 18.8695C151.14 18.4207 150.764 17.4895 150.942 16.2922C151.072 15.4208 151.649 14.8693 152.693 14.6706C153.625 14.493 154.564 14.3481 155.5 14.1882C155.959 14.1099 156.328 13.9684 156.319 13.3976C156.311 12.8377 156.018 12.5682 155.488 12.5489C154.453 12.511 153.417 12.4958 152.382 12.495C151.92 12.495 151.515 12.4285 151.51 11.8863C151.506 11.3449 151.91 11.2565 152.372 11.2615C153.389 11.2725 154.406 11.259 155.423 11.2733C156.812 11.2935 157.581 12.0589 157.676 13.4195C157.746 14.4307 157.721 15.441 157.734 16.4514L157.734 16.4505ZM156.348 16.1828C156.348 15.9613 156.345 15.7408 156.349 15.5193C156.352 15.3425 156.274 15.2566 156.089 15.281C155.031 15.42 153.941 15.4107 152.944 15.8435C152.494 16.0396 152.298 16.4202 152.302 16.9195C152.306 17.4196 152.524 17.769 152.961 17.993C154.596 18.8291 156.223 17.9484 156.349 16.1828H156.348Z" fill="#3D3D3D"/>
<path d="M131.213 19.1296C130.448 19.1296 129.664 19.2324 128.919 19.1086C127.373 18.851 126.387 17.7017 126.071 15.9858C125.77 14.3456 126.446 12.6693 127.727 11.8871C129.163 11.0089 131.013 11.0552 132.335 11.994C133.067 12.5144 133.433 13.2452 133.575 14.0855C133.68 14.7026 133.166 15.2945 132.468 15.3955C130.992 15.6094 129.513 15.8098 128.023 15.8763C127.443 15.9024 127.419 16.1415 127.567 16.5633C127.853 17.3775 128.661 17.9096 129.764 17.9467C130.738 17.9795 131.715 17.9635 132.69 17.9703C132.897 17.972 133.1 17.9593 133.296 18.0629C133.694 18.2734 133.642 18.6371 133.617 18.9705C133.588 19.3469 133.263 19.1591 133.08 19.1659C132.459 19.1903 131.837 19.1751 131.214 19.1751C131.214 19.1591 131.214 19.1431 131.214 19.1271L131.213 19.1296ZM130.055 12.4403C128.652 12.431 127.647 13.2241 127.462 14.4248C127.42 14.7009 127.424 14.8491 127.773 14.8129C129.085 14.6782 130.404 14.5881 131.699 14.3313C132.246 14.2235 132.326 14.0105 132.073 13.5188C131.645 12.6878 130.877 12.4782 130.054 12.4403H130.055Z" fill="#3C3C3C"/>
<path d="M146.935 11.264C147.537 11.264 148.138 11.2623 148.739 11.2657C149.156 11.2674 149.425 11.4695 149.432 11.8795C149.438 12.2988 149.154 12.4849 148.745 12.4933C147.689 12.516 146.634 12.532 145.578 12.5548C144.911 12.5691 144.635 12.7989 144.613 13.3992C144.594 13.9078 144.886 14.1419 145.398 14.2235C146.417 14.3869 147.43 14.5856 148.44 14.791C149.668 15.0411 150.221 15.7626 150.114 16.9372C149.983 18.3559 149.252 19.138 148.007 19.1726C146.559 19.213 145.109 19.2475 143.66 19.266C143.43 19.2686 143.053 19.4285 143.035 19C143.018 18.6076 142.975 18.1521 143.537 18.0351C143.737 17.993 143.946 17.977 144.152 17.9745C145.271 17.9627 146.392 17.977 147.511 17.9467C148.287 17.9256 148.622 17.668 148.699 17.1325C148.814 16.3234 148.586 16.0489 147.674 15.894C146.738 15.7348 145.797 15.5993 144.87 15.4056C143.641 15.148 143.089 14.3624 143.233 13.161C143.376 11.9738 144.129 11.2851 145.318 11.2649C145.858 11.2556 146.396 11.2632 146.936 11.264H146.935Z" fill="#3D3D3D"/>
<path d="M170.299 15.3122C170.299 14.5645 170.283 13.816 170.306 13.0684C170.317 12.6987 170.224 12.4849 169.805 12.4942C169.381 12.5034 169.134 12.2997 169.137 11.8762C169.141 11.4476 169.415 11.2565 169.823 11.2725C170.218 11.2885 170.326 11.1125 170.304 10.7614C170.283 10.4187 170.302 10.0744 170.301 9.73083C170.301 9.36711 170.5 9.18524 170.853 9.1162C171.558 8.97896 171.687 9.07663 171.688 9.77546C171.688 9.81587 171.688 9.85629 171.688 9.8967C171.695 10.321 171.548 10.8464 171.752 11.1411C171.977 11.4661 172.553 11.2337 172.975 11.2632C173.393 11.2927 173.725 11.4181 173.726 11.8846C173.727 12.3535 173.401 12.4798 172.976 12.4984C171.688 12.5531 171.688 12.559 171.689 13.8177C171.689 14.9097 171.68 16.0009 171.692 17.0929C171.7 17.8667 171.888 18.0385 172.685 18.0848C172.953 18.0999 173.222 18.1168 173.486 18.1589C174.022 18.2456 174.021 18.6489 173.991 19.0446C173.957 19.5119 173.575 19.2778 173.372 19.2778C172.773 19.2778 172.173 19.2307 171.578 19.1684C170.803 19.0867 170.406 18.7449 170.352 17.9753C170.29 17.0913 170.337 16.1996 170.337 15.3114C170.325 15.3114 170.312 15.3114 170.3 15.3114L170.299 15.3122Z" fill="#414141"/>
<path d="M135.385 15.2474C135.385 14.4786 135.373 13.7091 135.391 12.9412C135.398 12.6305 135.354 12.4386 134.968 12.4672C134.558 12.4975 134.292 12.3123 134.252 11.8913C134.208 11.419 134.55 11.291 134.918 11.2809C135.31 11.2699 135.422 11.1083 135.389 10.7572C135.366 10.5164 135.383 10.2722 135.385 10.0289C135.395 9.27617 135.799 8.9798 136.549 9.13556C136.823 9.19281 136.793 9.36289 136.795 9.54139C136.798 9.96658 136.813 10.3918 136.791 10.8161C136.774 11.1521 136.882 11.2986 137.247 11.2682C137.556 11.243 137.868 11.2666 138.18 11.2716C138.583 11.2775 138.807 11.5023 138.811 11.8719C138.816 12.239 138.607 12.4756 138.199 12.4866C138.137 12.4883 138.074 12.4866 138.012 12.4891C137.214 12.511 136.814 12.9224 136.813 13.7234C136.812 14.8365 136.808 15.9496 136.816 17.0618C136.822 17.8465 137.037 18.046 137.856 18.0662C138.084 18.0721 138.321 18.0418 138.538 18.0915C138.957 18.1866 139.142 18.4645 139.116 18.8956C139.087 19.3713 138.726 19.2298 138.472 19.2307C137.975 19.2324 137.478 19.1978 136.981 19.1701C135.927 19.1103 135.432 18.643 135.394 17.6158C135.365 16.8277 135.388 16.038 135.388 15.249C135.386 15.249 135.385 15.249 135.384 15.249L135.385 15.2474Z" fill="#3E3E3E"/>
<path d="M160.525 14.1435C160.525 15.6784 160.507 17.2133 160.537 18.7482C160.546 19.1759 160.379 19.3081 160.006 19.2256C159.682 19.154 159.117 19.5397 159.121 18.7827C159.135 15.7736 159.125 12.7644 159.138 9.75524C159.141 9.19617 159.926 8.80803 160.421 9.09935C160.603 9.20628 160.521 9.39067 160.522 9.53885C160.528 11.0737 160.525 12.6086 160.525 14.1435Z" fill="#393939"/>
<path d="M141.722 15.2254C141.722 16.3975 141.697 17.5703 141.732 18.7415C141.754 19.4336 141.264 19.1818 140.928 19.2256C140.556 19.2744 140.328 19.2298 140.335 18.7398C140.365 16.4968 140.347 14.2538 140.349 12.0108C140.35 11.3802 141.042 10.9811 141.603 11.2783C141.799 11.3819 141.716 11.5629 141.717 11.7094C141.723 12.8814 141.72 14.0534 141.721 15.2254H141.722Z" fill="#373737"/>
<path d="M141.72 9.8024C141.717 10.5172 141.605 10.5762 140.851 10.625C140.152 10.6696 140.354 10.215 140.349 9.88155C140.34 9.21808 140.456 9.17683 141.207 9.12294C141.838 9.07832 141.719 9.45467 141.719 9.8024H141.72Z" fill="#414141"/>
</g>
<g clip-path="url(#clip3_453_2)">
<path d="M43.0806 108.539C42.8775 108.122 42.9801 107.674 42.9801 107.243C42.9734 96.6513 42.96 86.0595 42.998 75.4677C43.0024 74.4294 42.7815 74.1132 41.69 74.1177C32.9026 74.167 24.1151 74.1625 15.3277 74.1199C14.2876 74.1155 13.984 74.3487 13.9885 75.4341C14.0331 86.0663 14.0153 96.6984 14.0153 107.331C14.0153 108.77 13.984 108.793 12.6604 108.288C10.4173 107.432 9.01109 105.209 9.00663 102.433C8.9977 94.8617 9.0044 87.2907 9.0044 79.7197C9.0044 78.271 8.99547 76.82 9.0044 75.3713C9.03118 71.8796 11.6248 69.0786 15.1179 69.0517C24.0259 68.9844 32.9338 68.9799 41.8418 69.0517C45.317 69.0808 47.9464 71.8459 47.9664 75.3848C48.0156 84.4067 48.0156 93.4265 47.9664 102.448C47.9486 105.792 46.0313 108.064 43.085 108.535L43.0806 108.539Z" fill="#1C7B20"/>
<path d="M28.4944 79.3406C31.5389 79.3406 34.5834 79.3855 37.6256 79.3159C38.6055 79.2935 38.8354 79.6434 38.8755 80.5404C39.1099 85.8105 35.1548 90.4617 29.9698 91.2982C23.8585 92.2827 17.7227 87.0619 18.1513 80.4238C18.2049 79.6008 18.399 79.3272 19.245 79.3406C22.3274 79.3877 25.412 79.3586 28.4967 79.3586V79.3406H28.4944Z" fill="#F9A70D"/>
<path d="M34.1615 104.518C34.1615 101.666 34.1838 98.8109 34.1459 95.9583C34.137 95.2362 34.3088 94.9424 35.0722 94.9872C36.0699 95.0456 37.0743 95.0186 38.0742 94.994C38.5787 94.9805 38.7796 95.142 38.7773 95.6802C38.7595 100.504 38.8175 105.326 38.7438 110.149C38.7104 112.354 36.8689 113.951 34.686 113.926C33.9294 113.917 34.166 113.341 34.1637 112.962C34.1459 110.149 34.1548 107.335 34.1548 104.521H34.1615V104.518Z" fill="#F9A70D"/>
<path d="M26.153 104.516C26.153 101.702 26.1865 98.8871 26.1329 96.0727C26.1173 95.2093 26.3874 94.9514 27.2132 95.0164C28.0502 95.0837 28.8962 95.0702 29.7354 95.0164C30.4764 94.9693 30.78 95.151 30.7755 95.9897C30.7421 101.619 30.7443 107.248 30.7845 112.876C30.7912 113.697 30.5322 113.937 29.7622 113.872C28.6127 113.774 27.1329 114.343 26.3896 113.655C25.6307 112.953 26.2066 111.455 26.153 110.306C26.1084 109.344 26.1463 108.378 26.1463 107.411C26.1463 106.445 26.1463 105.48 26.1463 104.516H26.153Z" fill="#F9A70D"/>
<path d="M22.7782 104.393C22.7782 107.207 22.747 110.022 22.7961 112.836C22.8117 113.731 22.5483 113.933 21.6912 113.791C19.4971 113.43 18.2093 112.112 18.1914 109.898C18.1557 105.234 18.1981 100.571 18.1713 95.9067C18.1669 95.2137 18.3856 94.9917 19.0597 95.0276C19.9391 95.0769 20.8252 95.0926 21.7024 95.0254C22.5215 94.9626 22.8072 95.2003 22.7894 96.0727C22.7336 98.8467 22.7693 101.621 22.7693 104.395H22.7782V104.393Z" fill="#F9A70D"/>
</g>
<rect x="70.3909" y="76.2241" width="80" height="26.1088" rx="13.0544" fill="#FFD503"/>
<g clip-path="url(#clip4_453_2)">
<path d="M118.211 89.7977C118.366 89.2728 118.521 88.748 118.675 88.2231C118.873 87.5481 119.067 86.8731 119.268 86.1995C119.413 85.7167 119.661 85.5357 120.158 85.5343C120.507 85.5343 120.856 85.5343 121.206 85.5343C121.654 85.5343 121.92 85.7293 122.048 86.1588C122.375 87.266 122.697 88.3747 123.023 89.4819C123.054 89.59 123.089 89.6966 123.168 89.8005C123.222 89.6307 123.276 89.4623 123.327 89.2925C123.621 88.3031 123.913 87.3137 124.206 86.3244C124.374 85.7518 124.664 85.5343 125.261 85.5343C125.637 85.5343 126.011 85.5343 126.386 85.5343C126.702 85.5357 126.836 85.6788 126.759 85.9861C126.66 86.3791 126.528 86.765 126.403 87.1509C125.832 88.9262 125.261 90.7 124.688 92.4739C124.535 92.9454 124.231 93.1601 123.733 93.1615C123.455 93.1615 123.178 93.1615 122.9 93.1615C122.413 93.1601 122.093 92.9286 121.946 92.4655C121.549 91.2052 121.152 89.9436 120.754 88.682C120.733 88.6146 120.708 88.5501 120.666 88.4266C120.625 88.5361 120.601 88.5964 120.581 88.6581C120.181 89.9254 119.783 91.1926 119.381 92.4599C119.229 92.937 118.917 93.1601 118.415 93.1615C118.131 93.1615 117.846 93.1629 117.562 93.1615C117.105 93.1587 116.789 92.9356 116.647 92.4992C116.025 90.5779 115.408 88.6567 114.79 86.7341C114.726 86.5377 114.659 86.3426 114.604 86.1433C114.577 86.0451 114.56 85.9398 114.562 85.8388C114.563 85.6381 114.66 85.5371 114.86 85.5357C115.318 85.5301 115.778 85.5244 116.236 85.5385C116.658 85.5497 116.961 85.7967 117.085 86.2079C117.424 87.339 117.759 88.4701 118.095 89.6012C118.114 89.6672 118.137 89.7317 118.158 89.7977C118.176 89.7977 118.193 89.7977 118.211 89.7977Z" fill="#006C98"/>
<path d="M111.684 92.5511C111.562 92.6255 111.465 92.6858 111.368 92.7461C110.635 93.1896 109.834 93.344 108.989 93.3047C108.444 93.2794 107.911 93.1896 107.409 92.9567C106.488 92.5314 105.985 91.7554 106.013 90.8263C106.044 89.7794 106.585 89.1058 107.531 88.7241C108.04 88.5178 108.576 88.4378 109.124 88.4364C109.841 88.435 110.558 88.4308 111.276 88.4392C111.459 88.4406 111.511 88.3845 111.492 88.2035C111.396 87.3151 111.03 86.9755 110.129 86.9699C109.771 86.9671 109.418 87.0162 109.099 87.1944C108.978 87.2618 108.861 87.3544 108.77 87.4583C108.553 87.7039 108.288 87.8175 107.966 87.8161C107.662 87.8161 107.358 87.8161 107.055 87.8161C106.698 87.8147 106.532 87.6211 106.559 87.2604C106.611 86.5475 106.999 86.083 107.634 85.8009C108.154 85.5693 108.708 85.4753 109.27 85.4304C110.052 85.3687 110.832 85.349 111.601 85.5413C112.438 85.7504 113.129 86.163 113.534 86.9601C113.751 87.3895 113.838 87.8484 113.838 88.3256C113.838 89.7766 113.838 91.2277 113.838 92.6788C113.838 93.0226 113.699 93.1615 113.357 93.1629C112.982 93.1643 112.608 93.1629 112.232 93.1629C111.849 93.1629 111.726 93.0465 111.702 92.6619C111.701 92.6367 111.694 92.6128 111.684 92.5497V92.5511ZM110.299 90.0124C110.299 90.0124 110.299 90.0194 110.299 90.0236C109.945 90.0236 109.588 90.0082 109.235 90.0278C108.888 90.0475 108.597 90.1948 108.442 90.5288C108.216 91.0158 108.499 91.5617 109.065 91.674C109.924 91.8452 110.696 91.5743 111.42 91.1337C111.466 91.1056 111.493 91.0144 111.496 90.9526C111.504 90.7014 111.494 90.4502 111.501 90.199C111.506 90.0545 111.447 90.0082 111.307 90.011C110.971 90.018 110.637 90.0124 110.301 90.0124H110.299Z" fill="#006C98"/>
<path d="M138.202 92.5904C137.967 92.5609 137.767 92.5441 137.572 92.5104C136.915 92.3967 136.401 92.0543 135.996 91.535C135.549 90.9611 135.265 90.3043 135.05 89.6181C134.675 88.4182 134.316 87.2113 133.955 86.0072C133.866 85.7111 133.993 85.5385 134.299 85.5371C134.739 85.5343 135.178 85.5343 135.618 85.5371C135.967 85.5385 136.199 85.7125 136.303 86.0521C136.63 87.1257 136.952 88.2007 137.287 89.2728C137.422 89.7051 137.592 90.1233 137.878 90.4839C138.032 90.6762 138.221 90.8095 138.467 90.867C138.616 90.9007 138.688 90.8642 138.73 90.7085C139.117 89.2897 139.511 87.8723 139.903 86.4549C139.944 86.3061 139.983 86.156 140.028 86.0072C140.119 85.7013 140.337 85.5385 140.656 85.5371C141.089 85.5357 141.522 85.5357 141.955 85.5371C142.286 85.5371 142.421 85.7055 142.335 86.0184C141.715 88.2821 141.105 90.5499 140.461 92.8079C140.312 93.33 140.086 93.8394 139.83 94.3207C139.362 95.2034 138.598 95.6708 137.592 95.6595C136.98 95.6539 136.369 95.5838 135.758 95.5206C135.446 95.4883 135.321 95.3171 135.32 95.0112C135.32 94.7852 135.316 94.5593 135.32 94.3334C135.327 94.0597 135.484 93.8927 135.758 93.9025C136.054 93.9137 136.35 93.9488 136.643 93.9937C137.067 94.0597 137.424 93.9488 137.71 93.6289C137.968 93.337 138.103 92.9861 138.203 92.5918L138.202 92.5904Z" fill="#006C98"/>
<path d="M100.179 89.3346C100.179 88.2371 100.155 87.1397 100.19 86.0451C100.204 85.6072 100.301 85.1582 100.441 84.7414C100.733 83.8727 101.415 83.4208 102.276 83.2159C103.218 82.9914 104.173 83.0012 105.13 83.0812C105.375 83.1008 105.618 83.1345 105.86 83.178C106.165 83.2314 106.293 83.3927 106.296 83.6987C106.297 83.912 106.3 84.1253 106.296 84.3372C106.287 84.6431 106.13 84.8045 105.823 84.7989C105.604 84.7961 105.383 84.7835 105.168 84.7428C104.585 84.6319 104.007 84.6754 103.438 84.8087C102.891 84.9364 102.632 85.2746 102.551 85.916C102.527 86.1082 102.527 86.3019 102.508 86.4942C102.49 86.6682 102.553 86.7327 102.735 86.7299C103.452 86.7215 104.17 86.7257 104.887 86.7271C105.269 86.7271 105.402 86.859 105.403 87.238C105.403 87.4709 105.407 87.7025 105.403 87.9354C105.396 88.2428 105.239 88.3971 104.929 88.3985C104.198 88.4013 103.469 88.4041 102.738 88.3957C102.56 88.3943 102.506 88.4462 102.506 88.6259C102.513 89.9619 102.51 91.2979 102.508 92.6325C102.508 93.0366 102.381 93.1629 101.976 93.1644C101.55 93.1644 101.122 93.1644 100.696 93.1644C100.301 93.1644 100.169 93.0352 100.169 92.6451C100.169 91.5421 100.169 90.439 100.169 89.3346H100.182H100.179Z" fill="#006C98"/>
<path d="M130.114 86.3875C130.326 86.2444 130.491 86.1307 130.658 86.024C131.413 85.5371 132.257 85.3827 133.138 85.3939C133.391 85.3967 133.547 85.5539 133.554 85.8121C133.564 86.1672 133.564 86.5222 133.554 86.8773C133.546 87.1495 133.398 87.2955 133.124 87.2983C132.801 87.3011 132.477 87.2955 132.155 87.2646C131.51 87.2015 130.987 87.4372 130.513 87.8568C130.222 88.1137 130.096 88.3915 130.104 88.7943C130.132 90.0713 130.116 91.3498 130.114 92.6269C130.114 93.0381 129.981 93.1672 129.566 93.1686C129.12 93.1686 128.673 93.17 128.228 93.1686C127.918 93.1672 127.761 93.0128 127.761 92.7041C127.759 90.4713 127.759 88.2386 127.761 86.0058C127.761 85.6971 127.917 85.5427 128.228 85.5413C128.706 85.5385 129.185 85.5385 129.663 85.5413C129.948 85.5427 130.104 85.6985 130.114 85.9833C130.118 86.104 130.114 86.2247 130.114 86.3917V86.3875Z" fill="#006C98"/>
<path d="M96.531 89.2784C96.531 94.2702 92.4781 98.3161 87.4776 98.3161C86.5259 98.3161 85.6079 98.1687 84.7461 97.8979C83.4486 97.4881 82.2776 96.7948 81.3047 95.8911C79.5334 94.2407 78.4243 91.8887 78.4243 89.2784C78.4243 84.2867 82.4772 80.2408 87.4776 80.2408C88.5601 80.2408 89.5976 80.4302 90.5605 80.7783C91.8117 81.2302 92.9335 81.9487 93.8586 82.8665C95.509 84.5042 96.531 86.772 96.531 89.2784Z" fill="white"/>
<path d="M91.6768 93.1166L90.4579 92.509C90.4579 92.509 88.3787 96.2882 84.7462 97.8979C83.4486 97.4881 82.2776 96.7949 81.3047 95.8911C82.1004 95.776 83.391 95.3676 84.7504 94.033C86.9687 91.855 87.4776 90.658 87.4776 90.658L86.5273 90.025C86.2012 89.8075 86.2644 89.3121 86.6341 89.183L90.8164 87.7277C91.1004 87.6295 91.404 87.8161 91.4434 88.1137L92.0648 92.8416C92.0929 93.0549 91.8693 93.2135 91.6768 93.1166Z" fill="#006C98"/>
<path d="M92.9378 87.8835C92.8351 88.1417 92.4584 88.1038 92.4106 87.8302L92.1322 86.2289L90.0643 86.8703C89.8352 86.9404 89.6313 86.7075 89.7339 86.4914C90.0024 85.9188 90.4059 84.9435 90.7138 83.6888C91.0062 82.4988 90.7939 81.4519 90.5606 80.7783C91.8117 81.2302 92.9335 81.9487 93.8586 82.8665C94.0259 84.761 93.375 86.7776 92.9378 87.8835Z" fill="#006C98"/>
</g>
<defs>
<clipPath id="clip0_453_2">
<rect width="39" height="40" fill="white" transform="translate(0 2)"/>
</clipPath>
<clipPath id="clip1_453_2">
<rect width="39" height="44" fill="white" transform="translate(64)"/>
</clipPath>
<clipPath id="clip2_453_2">
<rect width="48" height="27" fill="white" transform="translate(126 9)"/>
</clipPath>
<clipPath id="clip3_453_2">
<rect width="39" height="45" fill="white" transform="translate(9 69)"/>
</clipPath>
<clipPath id="clip4_453_2">
<rect x="78.4243" y="80.2408" width="63.9331" height="18.0753" fill="white"/>
</clipPath>
</defs>
</svg>
