<svg width="37" height="37" viewBox="0 0 37 37" fill="none" xmlns="http://www.w3.org/2000/svg">
<g clip-path="url(#clip0_439_46)">
<mask id="mask0_439_46" style="mask-type:luminance" maskUnits="userSpaceOnUse" x="0" y="0" width="37" height="37">
<path d="M37 0H0V37H37V0Z" fill="white"/>
</mask>
<g mask="url(#mask0_439_46)">
<path d="M33.8704 28.2588C33.8704 28.8138 33.7471 29.3842 33.485 29.9392C33.2229 30.4942 32.8838 31.0184 32.4367 31.5117C31.6813 32.3442 30.8488 32.9455 29.9083 33.3309C28.9833 33.7163 27.9813 33.9167 26.9021 33.9167C25.3296 33.9167 23.6492 33.5467 21.8763 32.7913C20.1033 32.0359 18.3304 31.0184 16.5729 29.7388C14.8 28.4438 13.1196 27.01 11.5163 25.4221C9.92834 23.8188 8.49459 22.1384 7.21501 20.3809C5.95084 18.6234 4.93334 16.8659 4.19334 15.1238C3.45334 13.3663 3.08334 11.6859 3.08334 10.0825C3.08334 9.03421 3.26834 8.03212 3.63834 7.10712C4.00834 6.16671 4.59418 5.30337 5.41126 4.53254C6.39793 3.56129 7.47709 3.08337 8.61793 3.08337C9.04959 3.08337 9.48126 3.17587 9.86668 3.36087C10.2675 3.54587 10.6221 3.82337 10.8996 4.22421L14.4763 9.26546C14.7538 9.65087 14.9542 10.0055 15.0929 10.3446C15.2317 10.6684 15.3088 10.9921 15.3088 11.285C15.3088 11.655 15.2008 12.025 14.985 12.3796C14.7846 12.7342 14.4917 13.1042 14.1217 13.4742L12.95 14.6921C12.7804 14.8617 12.7033 15.0621 12.7033 15.3088C12.7033 15.4321 12.7188 15.54 12.7496 15.6634C12.7958 15.7867 12.8421 15.8792 12.8729 15.9717C13.1504 16.4805 13.6283 17.1434 14.3067 17.945C15.0004 18.7467 15.7404 19.5638 16.5421 20.3809C17.3746 21.198 18.1763 21.9534 18.9933 22.6471C19.795 23.3255 20.4579 23.788 20.9821 24.0655C21.0592 24.0963 21.1517 24.1425 21.2596 24.1888C21.3829 24.235 21.5063 24.2505 21.645 24.2505C21.9071 24.2505 22.1075 24.158 22.2771 23.9884L23.4488 22.8321C23.8342 22.4467 24.2042 22.1538 24.5588 21.9688C24.9133 21.753 25.2679 21.645 25.6533 21.645C25.9463 21.645 26.2546 21.7067 26.5938 21.8455C26.9329 21.9842 27.2875 22.1846 27.6729 22.4467L32.7758 26.0696C33.1767 26.3471 33.4542 26.6709 33.6238 27.0563C33.7779 27.4417 33.8704 27.8271 33.8704 28.2588Z" stroke="#609966" stroke-width="2.2" stroke-miterlimit="10"/>
</g>
</g>
<defs>
<clipPath id="clip0_439_46">
<rect width="37" height="37" fill="white"/>
</clipPath>
</defs>
</svg>
