<svg width="50" height="50" viewBox="0 0 50 50" fill="none" xmlns="http://www.w3.org/2000/svg">
<circle cx="25" cy="25" r="25" fill="#DFEBE0"/>
<path d="M15.0869 15C14.7748 15 14.3694 15.1445 13.7898 15.5202C14.0199 15.7919 14.2636 16.0822 14.7453 16.6374C15.0808 17.024 15.4193 17.4084 15.6751 17.6868C15.6773 17.6892 15.6783 17.69 15.6804 17.6924L17.4728 16.652L16.6227 15.8312C15.9676 15.2856 15.5411 15.0267 15.1481 15.002C15.1277 15.0007 15.1073 15 15.0869 15ZM22.0535 15.875C22.0024 15.8744 21.9513 15.8746 21.9002 15.8756C21.2933 15.8868 20.7282 16.005 20.3487 16.1903L16.4464 18.4551C16.5885 18.4867 16.7298 18.5245 16.8692 18.5723C17.8714 18.9159 18.7891 19.6295 19.7449 20.5855L32.302 32.9719L37 30.3941L24.6474 16.7368C24.1452 16.282 23.3426 15.988 22.5186 15.9017C22.3641 15.8857 22.2088 15.8768 22.0534 15.8751L22.0535 15.875ZM13.024 16.2356C12.0062 17.4378 11.8306 18.393 12.1348 19.5427C12.175 19.6946 12.3122 19.9115 12.5045 20.1502C12.6356 19.9625 12.7727 19.7791 12.9157 19.6003C13.1471 19.3105 13.4021 19.0675 13.6748 18.8717L13.6686 18.8601L13.8292 18.7667C13.9071 18.7171 13.987 18.6708 14.0688 18.6279L14.7574 18.2281C14.4874 17.9287 14.2205 17.6266 13.9566 17.3218C13.644 16.9612 13.3331 16.5991 13.024 16.2356ZM23.7044 17.0152L27.0934 20.5931C24.4196 20.3008 23.7986 21.3589 23.0887 22.5772L19.7624 19.1366L23.7044 17.0152ZM15.6643 19.3969C15.6227 19.3959 15.5811 19.396 15.5396 19.397C15.1348 19.4074 14.7153 19.5164 14.2486 19.7384C14.0725 19.8713 13.9011 20.0399 13.7316 20.252C12.2366 22.1238 11.9651 23.6828 12.2532 25.095C12.5412 26.5073 13.4446 27.8018 14.4529 28.9505C15.2253 29.8305 16.1273 30.3424 17.2651 30.5709C18.403 30.7995 19.7852 30.728 21.4411 30.3693C23.3699 29.9515 25.2707 30.8578 26.9996 31.9743C28.5149 32.9529 29.9397 34.1261 31.1176 34.8722L31.6276 33.7737L19.0079 21.3251L19.0066 21.3238C18.106 20.4232 17.2914 19.8209 16.5304 19.56C16.2391 19.4601 15.9545 19.4037 15.6643 19.3969ZM36.9609 31.6068L32.6996 33.945L32.0916 35.2543L36.2011 33.0259L36.9608 31.6068L36.9609 31.6068Z" fill="#609966"/>
</svg>
