<svg width="37" height="37" viewBox="0 0 37 37" fill="none" xmlns="http://www.w3.org/2000/svg">
<g clip-path="url(#clip0_439_39)">
<mask id="mask0_439_39" style="mask-type:luminance" maskUnits="userSpaceOnUse" x="0" y="0" width="37" height="37">
<path d="M37 0H0V37H37V0Z" fill="white"/>
</mask>
<g mask="url(#mask0_439_39)">
<path d="M18.5 19.6563C13.6129 19.6563 9.63541 15.6788 9.63541 10.7917C9.63541 5.90462 13.6129 1.92712 18.5 1.92712C23.3871 1.92712 27.3646 5.90462 27.3646 10.7917C27.3646 15.6788 23.3871 19.6563 18.5 19.6563ZM18.5 4.23962C14.8925 4.23962 11.9479 7.18421 11.9479 10.7917C11.9479 14.3992 14.8925 17.3438 18.5 17.3438C22.1075 17.3438 25.0521 14.3992 25.0521 10.7917C25.0521 7.18421 22.1075 4.23962 18.5 4.23962Z" fill="#609966"/>
<path d="M31.7431 35.0729C31.111 35.0729 30.5868 34.5488 30.5868 33.9167C30.5868 28.5979 25.1603 24.2813 18.5003 24.2813C11.8402 24.2813 6.41357 28.5979 6.41357 33.9167C6.41357 34.5488 5.88941 35.0729 5.25732 35.0729C4.62524 35.0729 4.10107 34.5488 4.10107 33.9167C4.10107 27.3338 10.5606 21.9688 18.5003 21.9688C26.4399 21.9688 32.8993 27.3338 32.8993 33.9167C32.8993 34.5488 32.3751 35.0729 31.7431 35.0729Z" fill="#609966"/>
</g>
</g>
<defs>
<clipPath id="clip0_439_39">
<rect width="37" height="37" fill="white"/>
</clipPath>
</defs>
</svg>
